<?xml version="1.0" encoding="UTF-8"?>
<svg xmlns="http://www.w3.org/2000/svg" width="1600" height="900" viewBox="0 0 1600 900" role="img" aria-label="Porto placeholder background">
  <rect width="1600" height="900" fill="transparent"/>
  <g fill="#000">
    <!-- River line -->
    <path d="M0 680c220-40 380-40 620 0s520 40 980 0v80H0z" opacity="0.5"/>
    <!-- Simple bridge silhouette -->
    <path d="M240 640h1120v40H240z" opacity="0.85"/>
    <path d="M520 640c40-140 160-220 280-220s240 80 280 220h-70c-30-100-110-160-210-160s-180 60-210 160h-70z" opacity="0.65"/>
    <path d="M520 640v80h80v-80h-80zm480 0v80h80v-80h-80z" opacity="0.8"/>
  </g>
  <text x="80" y="160" font-family="system-ui, -apple-system, Segoe UI, Roboto, Arial" font-size="120" fill="#000" opacity="0.55">PORTO</text>
</svg>
