<?xml version="1.0" encoding="UTF-8"?>
<svg xmlns="http://www.w3.org/2000/svg" width="1600" height="900" viewBox="0 0 1600 900" role="img" aria-label="Sintra placeholder background">
  <rect width="1600" height="900" fill="transparent"/>
  <g fill="#000">
    <path d="M200 740h1200v36H200z" opacity="0.9"/>
    <!-- Abstract palace silhouette placeholder -->
    <path d="M520 740V520h560v220H520z" opacity="0.55"/>
    <path d="M560 520l80-120h320l80 120H560z" opacity="0.45"/>
    <path d="M640 740V600h120v140H640zm200 0V600h120v140H840z" opacity="0.75"/>
    <!-- Two chimneys (inspired by Palácio Nacional) -->
    <path d="M640 520V360h110v160H640z" opacity="0.5"/>
    <path d="M850 520V360h110v160H850z" opacity="0.5"/>
    <path d="M630 360c20-80 130-80 150 0H630z" opacity="0.35"/>
    <path d="M840 360c20-80 130-80 150 0H840z" opacity="0.35"/>
  </g>
  <text x="80" y="160" font-family="system-ui, -apple-system, Segoe UI, Roboto, Arial" font-size="120" fill="#000" opacity="0.55">SINTRA</text>
</svg>
